G04 #@! TF.FileFunction,Legend,Bot*
%FSLAX46Y46*%
G04 Gerber Fmt 4.6, Leading zero omitted, Abs format (unit mm)*
G04 Created by KiCad (PCBNEW 4.0.4-stable) date 10/18/16 01:23:18*
%MOMM*%
%LPD*%
G01*
G04 APERTURE LIST*
%ADD10C,0.100000*%
%ADD11C,0.200000*%
%ADD12C,0.150000*%
G04 APERTURE END LIST*
D10*
D11*
X133683143Y-105178381D02*
X133683143Y-104178381D01*
X133349809Y-104892667D01*
X133016476Y-104178381D01*
X133016476Y-105178381D01*
X132540286Y-105178381D02*
X132540286Y-104178381D01*
X132206953Y-104178381D02*
X131635524Y-104178381D01*
X131921239Y-105178381D02*
X131921239Y-104178381D01*
X131445048Y-104178381D02*
X130873619Y-104178381D01*
X131159334Y-105178381D02*
X131159334Y-104178381D01*
X130349810Y-104178381D02*
X130159333Y-104178381D01*
X130064095Y-104226000D01*
X129968857Y-104321238D01*
X129921238Y-104511714D01*
X129921238Y-104845048D01*
X129968857Y-105035524D01*
X130064095Y-105130762D01*
X130159333Y-105178381D01*
X130349810Y-105178381D01*
X130445048Y-105130762D01*
X130540286Y-105035524D01*
X130587905Y-104845048D01*
X130587905Y-104511714D01*
X130540286Y-104321238D01*
X130445048Y-104226000D01*
X130349810Y-104178381D01*
X134278381Y-106878381D02*
X134278381Y-105878381D01*
X134040286Y-105878381D01*
X133897428Y-105926000D01*
X133802190Y-106021238D01*
X133754571Y-106116476D01*
X133706952Y-106306952D01*
X133706952Y-106449810D01*
X133754571Y-106640286D01*
X133802190Y-106735524D01*
X133897428Y-106830762D01*
X134040286Y-106878381D01*
X134278381Y-106878381D01*
X133278381Y-106354571D02*
X132945047Y-106354571D01*
X132802190Y-106878381D02*
X133278381Y-106878381D01*
X133278381Y-105878381D01*
X132802190Y-105878381D01*
X132421238Y-106830762D02*
X132278381Y-106878381D01*
X132040285Y-106878381D01*
X131945047Y-106830762D01*
X131897428Y-106783143D01*
X131849809Y-106687905D01*
X131849809Y-106592667D01*
X131897428Y-106497429D01*
X131945047Y-106449810D01*
X132040285Y-106402190D01*
X132230762Y-106354571D01*
X132326000Y-106306952D01*
X132373619Y-106259333D01*
X132421238Y-106164095D01*
X132421238Y-106068857D01*
X132373619Y-105973619D01*
X132326000Y-105926000D01*
X132230762Y-105878381D01*
X131992666Y-105878381D01*
X131849809Y-105926000D01*
X131421238Y-106878381D02*
X131421238Y-105878381D01*
X130421238Y-105926000D02*
X130516476Y-105878381D01*
X130659333Y-105878381D01*
X130802191Y-105926000D01*
X130897429Y-106021238D01*
X130945048Y-106116476D01*
X130992667Y-106306952D01*
X130992667Y-106449810D01*
X130945048Y-106640286D01*
X130897429Y-106735524D01*
X130802191Y-106830762D01*
X130659333Y-106878381D01*
X130564095Y-106878381D01*
X130421238Y-106830762D01*
X130373619Y-106783143D01*
X130373619Y-106449810D01*
X130564095Y-106449810D01*
X129945048Y-106878381D02*
X129945048Y-105878381D01*
X129373619Y-106878381D01*
X129373619Y-105878381D01*
X132421238Y-108578381D02*
X132897429Y-108578381D01*
X132897429Y-107578381D01*
X131611714Y-108578381D02*
X132087905Y-108578381D01*
X132087905Y-107578381D01*
X130706952Y-108483143D02*
X130754571Y-108530762D01*
X130897428Y-108578381D01*
X130992666Y-108578381D01*
X131135524Y-108530762D01*
X131230762Y-108435524D01*
X131278381Y-108340286D01*
X131326000Y-108149810D01*
X131326000Y-108006952D01*
X131278381Y-107816476D01*
X131230762Y-107721238D01*
X131135524Y-107626000D01*
X130992666Y-107578381D01*
X130897428Y-107578381D01*
X130754571Y-107626000D01*
X130706952Y-107673619D01*
X130070381Y-91678095D02*
X129070381Y-91678095D01*
X129070381Y-91916190D01*
X129118000Y-92059048D01*
X129213238Y-92154286D01*
X129308476Y-92201905D01*
X129498952Y-92249524D01*
X129641810Y-92249524D01*
X129832286Y-92201905D01*
X129927524Y-92154286D01*
X130022762Y-92059048D01*
X130070381Y-91916190D01*
X130070381Y-91678095D01*
X129403714Y-93106667D02*
X130070381Y-93106667D01*
X129403714Y-92678095D02*
X129927524Y-92678095D01*
X130022762Y-92725714D01*
X130070381Y-92820952D01*
X130070381Y-92963810D01*
X130022762Y-93059048D01*
X129975143Y-93106667D01*
X130070381Y-94011429D02*
X129546571Y-94011429D01*
X129451333Y-93963810D01*
X129403714Y-93868572D01*
X129403714Y-93678095D01*
X129451333Y-93582857D01*
X130022762Y-94011429D02*
X130070381Y-93916191D01*
X130070381Y-93678095D01*
X130022762Y-93582857D01*
X129927524Y-93535238D01*
X129832286Y-93535238D01*
X129737048Y-93582857D01*
X129689429Y-93678095D01*
X129689429Y-93916191D01*
X129641810Y-94011429D01*
X130070381Y-94630476D02*
X130022762Y-94535238D01*
X129927524Y-94487619D01*
X129070381Y-94487619D01*
X129784667Y-95725715D02*
X129784667Y-96201906D01*
X130070381Y-95630477D02*
X129070381Y-95963810D01*
X130070381Y-96297144D01*
X129403714Y-97059049D02*
X130070381Y-97059049D01*
X129403714Y-96630477D02*
X129927524Y-96630477D01*
X130022762Y-96678096D01*
X130070381Y-96773334D01*
X130070381Y-96916192D01*
X130022762Y-97011430D01*
X129975143Y-97059049D01*
X130070381Y-97963811D02*
X129070381Y-97963811D01*
X130022762Y-97963811D02*
X130070381Y-97868573D01*
X130070381Y-97678096D01*
X130022762Y-97582858D01*
X129975143Y-97535239D01*
X129879905Y-97487620D01*
X129594190Y-97487620D01*
X129498952Y-97535239D01*
X129451333Y-97582858D01*
X129403714Y-97678096D01*
X129403714Y-97868573D01*
X129451333Y-97963811D01*
X130070381Y-98440001D02*
X129403714Y-98440001D01*
X129070381Y-98440001D02*
X129118000Y-98392382D01*
X129165619Y-98440001D01*
X129118000Y-98487620D01*
X129070381Y-98440001D01*
X129165619Y-98440001D01*
X130070381Y-99059048D02*
X130022762Y-98963810D01*
X129975143Y-98916191D01*
X129879905Y-98868572D01*
X129594190Y-98868572D01*
X129498952Y-98916191D01*
X129451333Y-98963810D01*
X129403714Y-99059048D01*
X129403714Y-99201906D01*
X129451333Y-99297144D01*
X129498952Y-99344763D01*
X129594190Y-99392382D01*
X129879905Y-99392382D01*
X129975143Y-99344763D01*
X130022762Y-99297144D01*
X130070381Y-99201906D01*
X130070381Y-99059048D01*
X131246571Y-92011429D02*
X131294190Y-92154286D01*
X131341810Y-92201905D01*
X131437048Y-92249524D01*
X131579905Y-92249524D01*
X131675143Y-92201905D01*
X131722762Y-92154286D01*
X131770381Y-92059048D01*
X131770381Y-91678095D01*
X130770381Y-91678095D01*
X130770381Y-92011429D01*
X130818000Y-92106667D01*
X130865619Y-92154286D01*
X130960857Y-92201905D01*
X131056095Y-92201905D01*
X131151333Y-92154286D01*
X131198952Y-92106667D01*
X131246571Y-92011429D01*
X131246571Y-91678095D01*
X131770381Y-92678095D02*
X131103714Y-92678095D01*
X131294190Y-92678095D02*
X131198952Y-92725714D01*
X131151333Y-92773333D01*
X131103714Y-92868571D01*
X131103714Y-92963810D01*
X131722762Y-93678096D02*
X131770381Y-93582858D01*
X131770381Y-93392381D01*
X131722762Y-93297143D01*
X131627524Y-93249524D01*
X131246571Y-93249524D01*
X131151333Y-93297143D01*
X131103714Y-93392381D01*
X131103714Y-93582858D01*
X131151333Y-93678096D01*
X131246571Y-93725715D01*
X131341810Y-93725715D01*
X131437048Y-93249524D01*
X131770381Y-94582858D02*
X131246571Y-94582858D01*
X131151333Y-94535239D01*
X131103714Y-94440001D01*
X131103714Y-94249524D01*
X131151333Y-94154286D01*
X131722762Y-94582858D02*
X131770381Y-94487620D01*
X131770381Y-94249524D01*
X131722762Y-94154286D01*
X131627524Y-94106667D01*
X131532286Y-94106667D01*
X131437048Y-94154286D01*
X131389429Y-94249524D01*
X131389429Y-94487620D01*
X131341810Y-94582858D01*
X131770381Y-95059048D02*
X130770381Y-95059048D01*
X131389429Y-95154286D02*
X131770381Y-95440001D01*
X131103714Y-95440001D02*
X131484667Y-95059048D01*
X131770381Y-96011429D02*
X131722762Y-95916191D01*
X131675143Y-95868572D01*
X131579905Y-95820953D01*
X131294190Y-95820953D01*
X131198952Y-95868572D01*
X131151333Y-95916191D01*
X131103714Y-96011429D01*
X131103714Y-96154287D01*
X131151333Y-96249525D01*
X131198952Y-96297144D01*
X131294190Y-96344763D01*
X131579905Y-96344763D01*
X131675143Y-96297144D01*
X131722762Y-96249525D01*
X131770381Y-96154287D01*
X131770381Y-96011429D01*
X131103714Y-97201906D02*
X131770381Y-97201906D01*
X131103714Y-96773334D02*
X131627524Y-96773334D01*
X131722762Y-96820953D01*
X131770381Y-96916191D01*
X131770381Y-97059049D01*
X131722762Y-97154287D01*
X131675143Y-97201906D01*
X131103714Y-97535239D02*
X131103714Y-97916191D01*
X130770381Y-97678096D02*
X131627524Y-97678096D01*
X131722762Y-97725715D01*
X131770381Y-97820953D01*
X131770381Y-97916191D01*
X133470381Y-92249524D02*
X132994190Y-91916190D01*
X133470381Y-91678095D02*
X132470381Y-91678095D01*
X132470381Y-92059048D01*
X132518000Y-92154286D01*
X132565619Y-92201905D01*
X132660857Y-92249524D01*
X132803714Y-92249524D01*
X132898952Y-92201905D01*
X132946571Y-92154286D01*
X132994190Y-92059048D01*
X132994190Y-91678095D01*
X133422762Y-93059048D02*
X133470381Y-92963810D01*
X133470381Y-92773333D01*
X133422762Y-92678095D01*
X133327524Y-92630476D01*
X132946571Y-92630476D01*
X132851333Y-92678095D01*
X132803714Y-92773333D01*
X132803714Y-92963810D01*
X132851333Y-93059048D01*
X132946571Y-93106667D01*
X133041810Y-93106667D01*
X133137048Y-92630476D01*
X132803714Y-93440000D02*
X133470381Y-93678095D01*
X132803714Y-93916191D01*
X133184667Y-94249524D02*
X133184667Y-94725715D01*
X133470381Y-94154286D02*
X132470381Y-94487619D01*
X133470381Y-94820953D01*
X128674762Y-93512476D02*
X128722381Y-93655333D01*
X128722381Y-93893429D01*
X128674762Y-93988667D01*
X128627143Y-94036286D01*
X128531905Y-94083905D01*
X128436667Y-94083905D01*
X128341429Y-94036286D01*
X128293810Y-93988667D01*
X128246190Y-93893429D01*
X128198571Y-93702952D01*
X128150952Y-93607714D01*
X128103333Y-93560095D01*
X128008095Y-93512476D01*
X127912857Y-93512476D01*
X127817619Y-93560095D01*
X127770000Y-93607714D01*
X127722381Y-93702952D01*
X127722381Y-93941048D01*
X127770000Y-94083905D01*
X128722381Y-94512476D02*
X127722381Y-94512476D01*
X127722381Y-94893429D01*
X127770000Y-94988667D01*
X127817619Y-95036286D01*
X127912857Y-95083905D01*
X128055714Y-95083905D01*
X128150952Y-95036286D01*
X128198571Y-94988667D01*
X128246190Y-94893429D01*
X128246190Y-94512476D01*
X128722381Y-95512476D02*
X127722381Y-95512476D01*
X128198571Y-95512476D02*
X128198571Y-96083905D01*
X128722381Y-96083905D02*
X127722381Y-96083905D01*
X127722381Y-96750571D02*
X127722381Y-96845810D01*
X127770000Y-96941048D01*
X127817619Y-96988667D01*
X127912857Y-97036286D01*
X128103333Y-97083905D01*
X128341429Y-97083905D01*
X128531905Y-97036286D01*
X128627143Y-96988667D01*
X128674762Y-96941048D01*
X128722381Y-96845810D01*
X128722381Y-96750571D01*
X128674762Y-96655333D01*
X128627143Y-96607714D01*
X128531905Y-96560095D01*
X128341429Y-96512476D01*
X128103333Y-96512476D01*
X127912857Y-96560095D01*
X127817619Y-96607714D01*
X127770000Y-96655333D01*
X127722381Y-96750571D01*
X127722381Y-97941048D02*
X127722381Y-97750571D01*
X127770000Y-97655333D01*
X127817619Y-97607714D01*
X127960476Y-97512476D01*
X128150952Y-97464857D01*
X128531905Y-97464857D01*
X128627143Y-97512476D01*
X128674762Y-97560095D01*
X128722381Y-97655333D01*
X128722381Y-97845810D01*
X128674762Y-97941048D01*
X128627143Y-97988667D01*
X128531905Y-98036286D01*
X128293810Y-98036286D01*
X128198571Y-97988667D01*
X128150952Y-97941048D01*
X128103333Y-97845810D01*
X128103333Y-97655333D01*
X128150952Y-97560095D01*
X128198571Y-97512476D01*
X128293810Y-97464857D01*
X128055714Y-98893429D02*
X128722381Y-98893429D01*
X127674762Y-98655333D02*
X128389048Y-98417238D01*
X128389048Y-99036286D01*
X127722381Y-99893429D02*
X127722381Y-99417238D01*
X128198571Y-99369619D01*
X128150952Y-99417238D01*
X128103333Y-99512476D01*
X128103333Y-99750572D01*
X128150952Y-99845810D01*
X128198571Y-99893429D01*
X128293810Y-99941048D01*
X128531905Y-99941048D01*
X128627143Y-99893429D01*
X128674762Y-99845810D01*
X128722381Y-99750572D01*
X128722381Y-99512476D01*
X128674762Y-99417238D01*
X128627143Y-99369619D01*
X128722381Y-100845810D02*
X128722381Y-100369619D01*
X127722381Y-100369619D01*
X128722381Y-101179143D02*
X127722381Y-101179143D01*
X128436667Y-101512477D01*
X127722381Y-101845810D01*
X128722381Y-101845810D01*
X128055714Y-102750572D02*
X128722381Y-102750572D01*
X127674762Y-102512476D02*
X128389048Y-102274381D01*
X128389048Y-102893429D01*
X128722381Y-103274381D02*
X127722381Y-103274381D01*
X128198571Y-103274381D02*
X128198571Y-103845810D01*
X128722381Y-103845810D02*
X127722381Y-103845810D01*
X128341429Y-104322000D02*
X128341429Y-105083905D01*
X128198571Y-105893429D02*
X128246190Y-106036286D01*
X128293810Y-106083905D01*
X128389048Y-106131524D01*
X128531905Y-106131524D01*
X128627143Y-106083905D01*
X128674762Y-106036286D01*
X128722381Y-105941048D01*
X128722381Y-105560095D01*
X127722381Y-105560095D01*
X127722381Y-105893429D01*
X127770000Y-105988667D01*
X127817619Y-106036286D01*
X127912857Y-106083905D01*
X128008095Y-106083905D01*
X128103333Y-106036286D01*
X128150952Y-105988667D01*
X128198571Y-105893429D01*
X128198571Y-105560095D01*
X137731333Y-105878381D02*
X137398000Y-106878381D01*
X137064666Y-105878381D01*
X136159904Y-106783143D02*
X136207523Y-106830762D01*
X136350380Y-106878381D01*
X136445618Y-106878381D01*
X136588476Y-106830762D01*
X136683714Y-106735524D01*
X136731333Y-106640286D01*
X136778952Y-106449810D01*
X136778952Y-106306952D01*
X136731333Y-106116476D01*
X136683714Y-106021238D01*
X136588476Y-105926000D01*
X136445618Y-105878381D01*
X136350380Y-105878381D01*
X136207523Y-105926000D01*
X136159904Y-105973619D01*
X135159904Y-106783143D02*
X135207523Y-106830762D01*
X135350380Y-106878381D01*
X135445618Y-106878381D01*
X135588476Y-106830762D01*
X135683714Y-106735524D01*
X135731333Y-106640286D01*
X135778952Y-106449810D01*
X135778952Y-106306952D01*
X135731333Y-106116476D01*
X135683714Y-106021238D01*
X135588476Y-105926000D01*
X135445618Y-105878381D01*
X135350380Y-105878381D01*
X135207523Y-105926000D01*
X135159904Y-105973619D01*
X137731333Y-103814571D02*
X137588476Y-103862190D01*
X137540857Y-103909810D01*
X137493238Y-104005048D01*
X137493238Y-104147905D01*
X137540857Y-104243143D01*
X137588476Y-104290762D01*
X137683714Y-104338381D01*
X138064667Y-104338381D01*
X138064667Y-103338381D01*
X137731333Y-103338381D01*
X137636095Y-103386000D01*
X137588476Y-103433619D01*
X137540857Y-103528857D01*
X137540857Y-103624095D01*
X137588476Y-103719333D01*
X137636095Y-103766952D01*
X137731333Y-103814571D01*
X138064667Y-103814571D01*
X136493238Y-104243143D02*
X136540857Y-104290762D01*
X136683714Y-104338381D01*
X136778952Y-104338381D01*
X136921810Y-104290762D01*
X137017048Y-104195524D01*
X137064667Y-104100286D01*
X137112286Y-103909810D01*
X137112286Y-103766952D01*
X137064667Y-103576476D01*
X137017048Y-103481238D01*
X136921810Y-103386000D01*
X136778952Y-103338381D01*
X136683714Y-103338381D01*
X136540857Y-103386000D01*
X136493238Y-103433619D01*
X135588476Y-104338381D02*
X136064667Y-104338381D01*
X136064667Y-103338381D01*
X135255143Y-104338381D02*
X135255143Y-103338381D01*
X134683714Y-104338381D02*
X135112286Y-103766952D01*
X134683714Y-103338381D02*
X135255143Y-103909810D01*
X137421809Y-101798381D02*
X137421809Y-100798381D01*
X137183714Y-100798381D01*
X137040856Y-100846000D01*
X136945618Y-100941238D01*
X136897999Y-101036476D01*
X136850380Y-101226952D01*
X136850380Y-101369810D01*
X136897999Y-101560286D01*
X136945618Y-101655524D01*
X137040856Y-101750762D01*
X137183714Y-101798381D01*
X137421809Y-101798381D01*
X136421809Y-101798381D02*
X136421809Y-100798381D01*
X135945619Y-101798381D02*
X135945619Y-100798381D01*
X135374190Y-101798381D01*
X135374190Y-100798381D01*
X137731333Y-98734571D02*
X137588476Y-98782190D01*
X137540857Y-98829810D01*
X137493238Y-98925048D01*
X137493238Y-99067905D01*
X137540857Y-99163143D01*
X137588476Y-99210762D01*
X137683714Y-99258381D01*
X138064667Y-99258381D01*
X138064667Y-98258381D01*
X137731333Y-98258381D01*
X137636095Y-98306000D01*
X137588476Y-98353619D01*
X137540857Y-98448857D01*
X137540857Y-98544095D01*
X137588476Y-98639333D01*
X137636095Y-98686952D01*
X137731333Y-98734571D01*
X138064667Y-98734571D01*
X136493238Y-99163143D02*
X136540857Y-99210762D01*
X136683714Y-99258381D01*
X136778952Y-99258381D01*
X136921810Y-99210762D01*
X137017048Y-99115524D01*
X137064667Y-99020286D01*
X137112286Y-98829810D01*
X137112286Y-98686952D01*
X137064667Y-98496476D01*
X137017048Y-98401238D01*
X136921810Y-98306000D01*
X136778952Y-98258381D01*
X136683714Y-98258381D01*
X136540857Y-98306000D01*
X136493238Y-98353619D01*
X135588476Y-99258381D02*
X136064667Y-99258381D01*
X136064667Y-98258381D01*
X135255143Y-99258381D02*
X135255143Y-98258381D01*
X134683714Y-99258381D02*
X135112286Y-98686952D01*
X134683714Y-98258381D02*
X135255143Y-98829810D01*
X137302762Y-95718381D02*
X137064667Y-96718381D01*
X136874190Y-96004095D01*
X136683714Y-96718381D01*
X136445619Y-95718381D01*
X136112286Y-96670762D02*
X135969429Y-96718381D01*
X135731333Y-96718381D01*
X135636095Y-96670762D01*
X135588476Y-96623143D01*
X135540857Y-96527905D01*
X135540857Y-96432667D01*
X135588476Y-96337429D01*
X135636095Y-96289810D01*
X135731333Y-96242190D01*
X135921810Y-96194571D01*
X136017048Y-96146952D01*
X136064667Y-96099333D01*
X136112286Y-96004095D01*
X136112286Y-95908857D01*
X136064667Y-95813619D01*
X136017048Y-95766000D01*
X135921810Y-95718381D01*
X135683714Y-95718381D01*
X135540857Y-95766000D01*
X137159904Y-93226000D02*
X137255142Y-93178381D01*
X137397999Y-93178381D01*
X137540857Y-93226000D01*
X137636095Y-93321238D01*
X137683714Y-93416476D01*
X137731333Y-93606952D01*
X137731333Y-93749810D01*
X137683714Y-93940286D01*
X137636095Y-94035524D01*
X137540857Y-94130762D01*
X137397999Y-94178381D01*
X137302761Y-94178381D01*
X137159904Y-94130762D01*
X137112285Y-94083143D01*
X137112285Y-93749810D01*
X137302761Y-93749810D01*
X136683714Y-94178381D02*
X136683714Y-93178381D01*
X136112285Y-94178381D01*
X136112285Y-93178381D01*
X135636095Y-94178381D02*
X135636095Y-93178381D01*
X135398000Y-93178381D01*
X135255142Y-93226000D01*
X135159904Y-93321238D01*
X135112285Y-93416476D01*
X135064666Y-93606952D01*
X135064666Y-93749810D01*
X135112285Y-93940286D01*
X135159904Y-94035524D01*
X135255142Y-94130762D01*
X135398000Y-94178381D01*
X135636095Y-94178381D01*
D10*
X133588000Y-101216000D02*
X133588000Y-104016000D01*
X133588000Y-104016000D02*
X129888000Y-104016000D01*
X129888000Y-104016000D02*
X129888000Y-101216000D01*
X129888000Y-101216000D02*
X133588000Y-101216000D01*
D12*
X132548381Y-99314095D02*
X133357905Y-99314095D01*
X133453143Y-99361714D01*
X133500762Y-99409333D01*
X133548381Y-99504571D01*
X133548381Y-99695048D01*
X133500762Y-99790286D01*
X133453143Y-99837905D01*
X133357905Y-99885524D01*
X132548381Y-99885524D01*
X132643619Y-100314095D02*
X132596000Y-100361714D01*
X132548381Y-100456952D01*
X132548381Y-100695048D01*
X132596000Y-100790286D01*
X132643619Y-100837905D01*
X132738857Y-100885524D01*
X132834095Y-100885524D01*
X132976952Y-100837905D01*
X133548381Y-100266476D01*
X133548381Y-100885524D01*
M02*
