G04 #@! TF.FileFunction,Legend,Top*
%FSLAX46Y46*%
G04 Gerber Fmt 4.6, Leading zero omitted, Abs format (unit mm)*
G04 Created by KiCad (PCBNEW 4.0.4-stable) date 10/18/16 01:23:18*
%MOMM*%
%LPD*%
G01*
G04 APERTURE LIST*
%ADD10C,0.100000*%
%ADD11C,0.200000*%
%ADD12C,0.150000*%
G04 APERTURE END LIST*
D10*
D11*
X135636096Y-91956000D02*
X135540858Y-91908381D01*
X135398001Y-91908381D01*
X135255143Y-91956000D01*
X135159905Y-92051238D01*
X135112286Y-92146476D01*
X135064667Y-92336952D01*
X135064667Y-92479810D01*
X135112286Y-92670286D01*
X135159905Y-92765524D01*
X135255143Y-92860762D01*
X135398001Y-92908381D01*
X135493239Y-92908381D01*
X135636096Y-92860762D01*
X135683715Y-92813143D01*
X135683715Y-92479810D01*
X135493239Y-92479810D01*
X136112286Y-92908381D02*
X136112286Y-91908381D01*
X136683715Y-92908381D01*
X136683715Y-91908381D01*
X137159905Y-92908381D02*
X137159905Y-91908381D01*
X137398000Y-91908381D01*
X137540858Y-91956000D01*
X137636096Y-92051238D01*
X137683715Y-92146476D01*
X137731334Y-92336952D01*
X137731334Y-92479810D01*
X137683715Y-92670286D01*
X137636096Y-92765524D01*
X137540858Y-92860762D01*
X137398000Y-92908381D01*
X137159905Y-92908381D01*
X135064667Y-107148381D02*
X135398000Y-108148381D01*
X135731334Y-107148381D01*
X136636096Y-108053143D02*
X136588477Y-108100762D01*
X136445620Y-108148381D01*
X136350382Y-108148381D01*
X136207524Y-108100762D01*
X136112286Y-108005524D01*
X136064667Y-107910286D01*
X136017048Y-107719810D01*
X136017048Y-107576952D01*
X136064667Y-107386476D01*
X136112286Y-107291238D01*
X136207524Y-107196000D01*
X136350382Y-107148381D01*
X136445620Y-107148381D01*
X136588477Y-107196000D01*
X136636096Y-107243619D01*
X137636096Y-108053143D02*
X137588477Y-108100762D01*
X137445620Y-108148381D01*
X137350382Y-108148381D01*
X137207524Y-108100762D01*
X137112286Y-108005524D01*
X137064667Y-107910286D01*
X137017048Y-107719810D01*
X137017048Y-107576952D01*
X137064667Y-107386476D01*
X137112286Y-107291238D01*
X137207524Y-107196000D01*
X137350382Y-107148381D01*
X137445620Y-107148381D01*
X137588477Y-107196000D01*
X137636096Y-107243619D01*
D12*
X132072000Y-91606000D02*
X131072000Y-91606000D01*
X131072000Y-93306000D02*
X132072000Y-93306000D01*
X132072000Y-106846000D02*
X131072000Y-106846000D01*
X131072000Y-108546000D02*
X132072000Y-108546000D01*
X132072000Y-93638000D02*
X131072000Y-93638000D01*
X131072000Y-95338000D02*
X132072000Y-95338000D01*
X132072000Y-104814000D02*
X131072000Y-104814000D01*
X131072000Y-106514000D02*
X132072000Y-106514000D01*
X141478000Y-94996000D02*
X141478000Y-107696000D01*
X141478000Y-107696000D02*
X138938000Y-107696000D01*
X138938000Y-107696000D02*
X138938000Y-94996000D01*
X141758000Y-92176000D02*
X141758000Y-93726000D01*
X141478000Y-94996000D02*
X138938000Y-94996000D01*
X138658000Y-93726000D02*
X138658000Y-92176000D01*
X138658000Y-92176000D02*
X141758000Y-92176000D01*
X135798000Y-100471000D02*
X136998000Y-100471000D01*
X136998000Y-102221000D02*
X135798000Y-102221000D01*
X135798000Y-103011000D02*
X136998000Y-103011000D01*
X136998000Y-104761000D02*
X135798000Y-104761000D01*
X135798000Y-95391000D02*
X136998000Y-95391000D01*
X136998000Y-97141000D02*
X135798000Y-97141000D01*
X135798000Y-97931000D02*
X136998000Y-97931000D01*
X136998000Y-99681000D02*
X135798000Y-99681000D01*
D10*
X133588000Y-98936000D02*
X133588000Y-96136000D01*
X133588000Y-96136000D02*
X129888000Y-96136000D01*
X129888000Y-96136000D02*
X129888000Y-98936000D01*
X129888000Y-98936000D02*
X133588000Y-98936000D01*
D12*
X129389143Y-92622666D02*
X129436762Y-92670285D01*
X129484381Y-92813142D01*
X129484381Y-92908380D01*
X129436762Y-93051238D01*
X129341524Y-93146476D01*
X129246286Y-93194095D01*
X129055810Y-93241714D01*
X128912952Y-93241714D01*
X128722476Y-93194095D01*
X128627238Y-93146476D01*
X128532000Y-93051238D01*
X128484381Y-92908380D01*
X128484381Y-92813142D01*
X128532000Y-92670285D01*
X128579619Y-92622666D01*
X129484381Y-91670285D02*
X129484381Y-92241714D01*
X129484381Y-91956000D02*
X128484381Y-91956000D01*
X128627238Y-92051238D01*
X128722476Y-92146476D01*
X128770095Y-92241714D01*
X129389143Y-107862666D02*
X129436762Y-107910285D01*
X129484381Y-108053142D01*
X129484381Y-108148380D01*
X129436762Y-108291238D01*
X129341524Y-108386476D01*
X129246286Y-108434095D01*
X129055810Y-108481714D01*
X128912952Y-108481714D01*
X128722476Y-108434095D01*
X128627238Y-108386476D01*
X128532000Y-108291238D01*
X128484381Y-108148380D01*
X128484381Y-108053142D01*
X128532000Y-107910285D01*
X128579619Y-107862666D01*
X128579619Y-107481714D02*
X128532000Y-107434095D01*
X128484381Y-107338857D01*
X128484381Y-107100761D01*
X128532000Y-107005523D01*
X128579619Y-106957904D01*
X128674857Y-106910285D01*
X128770095Y-106910285D01*
X128912952Y-106957904D01*
X129484381Y-107529333D01*
X129484381Y-106910285D01*
X129389143Y-94654666D02*
X129436762Y-94702285D01*
X129484381Y-94845142D01*
X129484381Y-94940380D01*
X129436762Y-95083238D01*
X129341524Y-95178476D01*
X129246286Y-95226095D01*
X129055810Y-95273714D01*
X128912952Y-95273714D01*
X128722476Y-95226095D01*
X128627238Y-95178476D01*
X128532000Y-95083238D01*
X128484381Y-94940380D01*
X128484381Y-94845142D01*
X128532000Y-94702285D01*
X128579619Y-94654666D01*
X128484381Y-94321333D02*
X128484381Y-93702285D01*
X128865333Y-94035619D01*
X128865333Y-93892761D01*
X128912952Y-93797523D01*
X128960571Y-93749904D01*
X129055810Y-93702285D01*
X129293905Y-93702285D01*
X129389143Y-93749904D01*
X129436762Y-93797523D01*
X129484381Y-93892761D01*
X129484381Y-94178476D01*
X129436762Y-94273714D01*
X129389143Y-94321333D01*
X129389143Y-105830666D02*
X129436762Y-105878285D01*
X129484381Y-106021142D01*
X129484381Y-106116380D01*
X129436762Y-106259238D01*
X129341524Y-106354476D01*
X129246286Y-106402095D01*
X129055810Y-106449714D01*
X128912952Y-106449714D01*
X128722476Y-106402095D01*
X128627238Y-106354476D01*
X128532000Y-106259238D01*
X128484381Y-106116380D01*
X128484381Y-106021142D01*
X128532000Y-105878285D01*
X128579619Y-105830666D01*
X128817714Y-104973523D02*
X129484381Y-104973523D01*
X128436762Y-105211619D02*
X129151048Y-105449714D01*
X129151048Y-104830666D01*
X134818381Y-101512666D02*
X134342190Y-101846000D01*
X134818381Y-102084095D02*
X133818381Y-102084095D01*
X133818381Y-101703142D01*
X133866000Y-101607904D01*
X133913619Y-101560285D01*
X134008857Y-101512666D01*
X134151714Y-101512666D01*
X134246952Y-101560285D01*
X134294571Y-101607904D01*
X134342190Y-101703142D01*
X134342190Y-102084095D01*
X134818381Y-100560285D02*
X134818381Y-101131714D01*
X134818381Y-100846000D02*
X133818381Y-100846000D01*
X133961238Y-100941238D01*
X134056476Y-101036476D01*
X134104095Y-101131714D01*
X134818381Y-104052666D02*
X134342190Y-104386000D01*
X134818381Y-104624095D02*
X133818381Y-104624095D01*
X133818381Y-104243142D01*
X133866000Y-104147904D01*
X133913619Y-104100285D01*
X134008857Y-104052666D01*
X134151714Y-104052666D01*
X134246952Y-104100285D01*
X134294571Y-104147904D01*
X134342190Y-104243142D01*
X134342190Y-104624095D01*
X133913619Y-103671714D02*
X133866000Y-103624095D01*
X133818381Y-103528857D01*
X133818381Y-103290761D01*
X133866000Y-103195523D01*
X133913619Y-103147904D01*
X134008857Y-103100285D01*
X134104095Y-103100285D01*
X134246952Y-103147904D01*
X134818381Y-103719333D01*
X134818381Y-103100285D01*
X134818381Y-96432666D02*
X134342190Y-96766000D01*
X134818381Y-97004095D02*
X133818381Y-97004095D01*
X133818381Y-96623142D01*
X133866000Y-96527904D01*
X133913619Y-96480285D01*
X134008857Y-96432666D01*
X134151714Y-96432666D01*
X134246952Y-96480285D01*
X134294571Y-96527904D01*
X134342190Y-96623142D01*
X134342190Y-97004095D01*
X133818381Y-96099333D02*
X133818381Y-95480285D01*
X134199333Y-95813619D01*
X134199333Y-95670761D01*
X134246952Y-95575523D01*
X134294571Y-95527904D01*
X134389810Y-95480285D01*
X134627905Y-95480285D01*
X134723143Y-95527904D01*
X134770762Y-95575523D01*
X134818381Y-95670761D01*
X134818381Y-95956476D01*
X134770762Y-96051714D01*
X134723143Y-96099333D01*
X134818381Y-98972666D02*
X134342190Y-99306000D01*
X134818381Y-99544095D02*
X133818381Y-99544095D01*
X133818381Y-99163142D01*
X133866000Y-99067904D01*
X133913619Y-99020285D01*
X134008857Y-98972666D01*
X134151714Y-98972666D01*
X134246952Y-99020285D01*
X134294571Y-99067904D01*
X134342190Y-99163142D01*
X134342190Y-99544095D01*
X134151714Y-98115523D02*
X134818381Y-98115523D01*
X133770762Y-98353619D02*
X134485048Y-98591714D01*
X134485048Y-97972666D01*
X128738381Y-98297905D02*
X129547905Y-98297905D01*
X129643143Y-98250286D01*
X129690762Y-98202667D01*
X129738381Y-98107429D01*
X129738381Y-97916952D01*
X129690762Y-97821714D01*
X129643143Y-97774095D01*
X129547905Y-97726476D01*
X128738381Y-97726476D01*
X129738381Y-96726476D02*
X129738381Y-97297905D01*
X129738381Y-97012191D02*
X128738381Y-97012191D01*
X128881238Y-97107429D01*
X128976476Y-97202667D01*
X129024095Y-97297905D01*
M02*
