M48
;DRILL file {KiCad 4.0.4-stable} date 10/18/16 01:23:21
;FORMAT={-:-/ absolute / inch / decimal}
FMAT,2
INCH,TZ
T1C0.016
T2C0.040
T3C0.040
%
G90
G05
M72
T1
X5.09Y-3.81
X5.13Y-3.96
X5.155Y-3.93
X5.16Y-3.84
X5.16Y-4.04
X5.18Y-4.2
X5.19Y-3.77
X5.23Y-3.95
X5.28Y-3.89
X5.44Y-4.2
X5.46Y-3.89
X5.46Y-4.04
T2
X5.52Y-3.69
X5.52Y-3.79
X5.52Y-3.89
X5.52Y-3.99
X5.52Y-4.09
X5.52Y-4.19
T3
X5.22Y-3.84
X5.22Y-4.04
T0
M30
