G04 #@! TF.FileFunction,Copper,L1,Top,Signal*
%FSLAX46Y46*%
G04 Gerber Fmt 4.6, Leading zero omitted, Abs format (unit mm)*
G04 Created by KiCad (PCBNEW 4.0.1-stable) date 10/18/2016 8:01:35 AM*
%MOMM*%
G01*
G04 APERTURE LIST*
%ADD10C,0.100000*%
%ADD11R,1.000000X1.250000*%
%ADD12R,2.032000X1.727200*%
%ADD13O,2.032000X1.727200*%
%ADD14R,0.700000X1.300000*%
%ADD15R,0.522000X0.600000*%
%ADD16C,1.624000*%
%ADD17C,0.600000*%
%ADD18C,0.200000*%
G04 APERTURE END LIST*
D10*
D11*
X130572000Y-92456000D03*
X132572000Y-92456000D03*
X130572000Y-107696000D03*
X132572000Y-107696000D03*
X130572000Y-94488000D03*
X132572000Y-94488000D03*
X130572000Y-105664000D03*
X132572000Y-105664000D03*
D12*
X140208000Y-93726000D03*
D13*
X140208000Y-96266000D03*
X140208000Y-98806000D03*
X140208000Y-101346000D03*
X140208000Y-103886000D03*
X140208000Y-106426000D03*
D14*
X137348000Y-101346000D03*
X135448000Y-101346000D03*
X137348000Y-103886000D03*
X135448000Y-103886000D03*
X137348000Y-96266000D03*
X135448000Y-96266000D03*
X137348000Y-98806000D03*
X135448000Y-98806000D03*
D15*
X131336000Y-96636000D03*
X130253000Y-96636000D03*
X131336000Y-98436000D03*
X130253000Y-98436000D03*
D16*
X132588000Y-97536000D03*
D15*
X130253000Y-97536000D03*
D16*
X132588000Y-102616000D03*
D17*
X130937000Y-99822000D03*
X129286000Y-96774000D03*
X131572000Y-106680000D03*
X138176000Y-106680000D03*
X138684000Y-102616000D03*
X138684000Y-98806000D03*
X132842000Y-100330000D03*
X131064000Y-97536000D03*
X131064000Y-102616000D03*
X130302000Y-100584000D03*
X134112000Y-98806000D03*
X131826000Y-95758000D03*
D18*
X132572000Y-94488000D02*
X132588000Y-94504000D01*
X132588000Y-94504000D02*
X132588000Y-97536000D01*
X140208000Y-93726000D02*
X138430000Y-93726000D01*
X137668000Y-94488000D02*
X132572000Y-94488000D01*
X138430000Y-93726000D02*
X137668000Y-94488000D01*
X132572000Y-105664000D02*
X132572000Y-102632000D01*
X132572000Y-102632000D02*
X132588000Y-102616000D01*
X132572000Y-107696000D02*
X132572000Y-105664000D01*
X132572000Y-92456000D02*
X132572000Y-94488000D01*
X131336000Y-98436000D02*
X131336000Y-99423000D01*
X131336000Y-99423000D02*
X130937000Y-99822000D01*
X129424000Y-96636000D02*
X130253000Y-96636000D01*
X129286000Y-96774000D02*
X129424000Y-96636000D01*
X140208000Y-106426000D02*
X138430000Y-106426000D01*
X131572000Y-106680000D02*
X130572000Y-106680000D01*
X138430000Y-106426000D02*
X138176000Y-106680000D01*
X130572000Y-106680000D02*
X130556000Y-106680000D01*
X130556000Y-106680000D02*
X130572000Y-106680000D01*
X130572000Y-107696000D02*
X130572000Y-106680000D01*
X130572000Y-106680000D02*
X130572000Y-105664000D01*
X130253000Y-96636000D02*
X130253000Y-96061000D01*
X130253000Y-96061000D02*
X130572000Y-95742000D01*
X130572000Y-95742000D02*
X130572000Y-94488000D01*
X130572000Y-92456000D02*
X130572000Y-94488000D01*
X137348000Y-96266000D02*
X140208000Y-96266000D01*
X140208000Y-103886000D02*
X139954000Y-103886000D01*
X139954000Y-103886000D02*
X138684000Y-102616000D01*
X137348000Y-98806000D02*
X138684000Y-98806000D01*
X138684000Y-98806000D02*
X140208000Y-98806000D01*
X137348000Y-103886000D02*
X137348000Y-101346000D01*
X137348000Y-101346000D02*
X140208000Y-101346000D01*
X130253000Y-97536000D02*
X131064000Y-97536000D01*
X134432000Y-100330000D02*
X135448000Y-101346000D01*
X132842000Y-100330000D02*
X134432000Y-100330000D01*
X135382000Y-101346000D02*
X135448000Y-101346000D01*
X134112000Y-103886000D02*
X135448000Y-103886000D01*
X133858000Y-103632000D02*
X134112000Y-103886000D01*
X133858000Y-101346000D02*
X133858000Y-103632000D01*
X133604000Y-101092000D02*
X133858000Y-101346000D01*
X131572000Y-101092000D02*
X133604000Y-101092000D01*
X131318000Y-101346000D02*
X131572000Y-101092000D01*
X131318000Y-102362000D02*
X131318000Y-101346000D01*
X131064000Y-102616000D02*
X131318000Y-102362000D01*
X135448000Y-96266000D02*
X134940000Y-96962000D01*
X134940000Y-96962000D02*
X131318000Y-100584000D01*
X131318000Y-100584000D02*
X130302000Y-100584000D01*
X130302000Y-100584000D02*
X130302000Y-98485000D01*
X130302000Y-98485000D02*
X130253000Y-98436000D01*
X131336000Y-96636000D02*
X131336000Y-96248000D01*
X134112000Y-98806000D02*
X135448000Y-98806000D01*
X131336000Y-96248000D02*
X131826000Y-95758000D01*
M02*
