M48
;DRILL file {KiCad 4.0.1-stable} date 5/9/2017 7:52:01 PM
;FORMAT={-:-/ absolute / inch / decimal}
FMAT,2
INCH,TZ
T1C0.035
T2C0.039
T3C0.040
T4C0.047
%
G90
G05
M72
T1
X5.448Y-2.1409
X5.448Y-2.4409
X5.548Y-2.1409
X5.548Y-2.4409
X5.648Y-2.1409
X5.648Y-2.4409
X5.748Y-2.1409
X5.748Y-2.4409
T2
X5.215Y-1.378
X5.315Y-1.378
T3
X5.345Y-3.0057
X5.345Y-3.1057
X5.345Y-3.2057
X5.345Y-3.3057
X5.345Y-3.4057
X5.345Y-3.5057
X5.345Y-3.6057
X5.345Y-3.7057
X5.345Y-3.8057
X5.345Y-3.9057
X5.345Y-4.0057
X5.345Y-4.1057
X5.945Y-3.0057
X5.945Y-3.1057
X5.945Y-3.2057
X5.945Y-3.3057
X5.945Y-3.4057
X5.945Y-3.5057
X5.945Y-3.6057
X5.945Y-3.7057
X5.945Y-3.8057
X5.945Y-3.9057
X5.945Y-4.0057
X5.945Y-4.1057
T4
X5.4331Y-1.8701
X5.5512Y-1.8701
X5.6693Y-1.8701
T0
M30
