G04 #@! TF.FileFunction,Copper,L1,Top,Signal*
%FSLAX46Y46*%
G04 Gerber Fmt 4.6, Leading zero omitted, Abs format (unit mm)*
G04 Created by KiCad (PCBNEW 4.0.1-stable) date 5/9/2017 7:52:00 PM*
%MOMM*%
G01*
G04 APERTURE LIST*
%ADD10C,0.100000*%
%ADD11O,2.032000X1.727200*%
%ADD12R,1.000000X1.600000*%
%ADD13R,1.000000X1.250000*%
%ADD14R,1.700000X2.250000*%
%ADD15O,1.750000X2.250000*%
%ADD16R,0.800100X0.800100*%
%ADD17R,0.900000X1.700000*%
%ADD18O,1.700000X2.000000*%
%ADD19C,2.250000*%
%ADD20C,0.600000*%
%ADD21C,0.300000*%
%ADD22C,0.900000*%
G04 APERTURE END LIST*
D10*
D11*
X135763000Y-104284000D03*
X135763000Y-101744000D03*
X135763000Y-99204000D03*
X135763000Y-96664000D03*
X135763000Y-94124000D03*
X135763000Y-91584000D03*
X135763000Y-89044000D03*
X135763000Y-86504000D03*
X135763000Y-83964000D03*
X135763000Y-81424000D03*
X135763000Y-78884000D03*
X135763000Y-76344000D03*
X151003000Y-104284000D03*
X151003000Y-101744000D03*
X151003000Y-99204000D03*
X151003000Y-96664000D03*
X151003000Y-94124000D03*
X151003000Y-91584000D03*
X151003000Y-89044000D03*
X151003000Y-86504000D03*
X151003000Y-83964000D03*
X151003000Y-81424000D03*
X151003000Y-78884000D03*
X151003000Y-76344000D03*
D12*
X133000000Y-59000000D03*
X136000000Y-59000000D03*
D13*
X133500000Y-63500000D03*
X135500000Y-63500000D03*
D14*
X135000000Y-35000000D03*
D15*
X132460000Y-35000000D03*
D16*
X134050000Y-45500760D03*
X135950000Y-45500760D03*
X135000000Y-43501780D03*
D17*
X133550000Y-51000000D03*
X136450000Y-51000000D03*
X140550000Y-51000000D03*
X143450000Y-51000000D03*
X136450000Y-40000000D03*
X133550000Y-40000000D03*
X142450000Y-44000000D03*
X139550000Y-44000000D03*
D18*
X146000000Y-62000000D03*
X143460000Y-62000000D03*
X140920000Y-62000000D03*
X138380000Y-62000000D03*
X138380000Y-54380000D03*
X140920000Y-54380000D03*
X143460000Y-54380000D03*
X146000000Y-54380000D03*
D19*
X141000000Y-47500000D03*
X144000000Y-47500000D03*
X138000000Y-47500000D03*
D20*
X136499240Y-45500760D02*
X136499240Y-44500760D01*
X136499240Y-45500760D02*
X135950000Y-45500760D01*
X137000000Y-42500000D02*
X137000000Y-44000000D01*
D21*
X138000000Y-41500000D02*
X137000000Y-42500000D01*
X140500000Y-41500000D02*
X138000000Y-41500000D01*
X141000000Y-42000000D02*
X140500000Y-41500000D01*
X141000000Y-47500000D02*
X141000000Y-42000000D01*
D20*
X136499240Y-44500760D02*
X137000000Y-44000000D01*
X135950000Y-45500760D02*
X135950000Y-46550000D01*
X135500000Y-66000000D02*
X135500000Y-63500000D01*
X134500000Y-67000000D02*
X135500000Y-66000000D01*
X132500000Y-67000000D02*
X134500000Y-67000000D01*
X131000000Y-65500000D02*
X132500000Y-67000000D01*
X131000000Y-56500000D02*
X131000000Y-65500000D01*
X135000000Y-52500000D02*
X131000000Y-56500000D01*
D21*
X135000000Y-47500000D02*
X135000000Y-52500000D01*
D20*
X135950000Y-46550000D02*
X135000000Y-47500000D01*
X135500000Y-63500000D02*
X135500000Y-61500000D01*
X136000000Y-61000000D02*
X136000000Y-59000000D01*
X135500000Y-61500000D02*
X136000000Y-61000000D01*
D22*
X147500000Y-59000000D02*
X138380000Y-59000000D01*
X138380000Y-60500000D02*
X138380000Y-59000000D01*
X138380000Y-59000000D02*
X138000000Y-59000000D01*
X136000000Y-59000000D02*
X138000000Y-59000000D01*
X135763000Y-96664000D02*
X139836000Y-96664000D01*
X143500000Y-93000000D02*
X143500000Y-80000000D01*
X139836000Y-96664000D02*
X143500000Y-93000000D01*
X138380000Y-60500000D02*
X138380000Y-61000000D01*
X138380000Y-61000000D02*
X138380000Y-62000000D01*
X149000000Y-60500000D02*
X147500000Y-59000000D01*
X149000000Y-64500000D02*
X149000000Y-60500000D01*
X143500000Y-70000000D02*
X149000000Y-64500000D01*
X143500000Y-80000000D02*
X143500000Y-79000000D01*
X143500000Y-79000000D02*
X143500000Y-70000000D01*
X151003000Y-96664000D02*
X149664000Y-96664000D01*
X145923000Y-71577000D02*
X151000000Y-66500000D01*
X151000000Y-66500000D02*
X151000000Y-57000000D01*
X145923000Y-76344000D02*
X145923000Y-71577000D01*
X145923000Y-92923000D02*
X145923000Y-76344000D01*
X149664000Y-96664000D02*
X145923000Y-92923000D01*
X142450000Y-44000000D02*
X146000000Y-44000000D01*
X145500000Y-44000000D02*
X145500000Y-43500000D01*
X146000000Y-44000000D02*
X145500000Y-44000000D01*
X147000000Y-53000000D02*
X147000000Y-54380000D01*
X147000000Y-54380000D02*
X147000000Y-54500000D01*
X147000000Y-54500000D02*
X147000000Y-54380000D01*
X146000000Y-54380000D02*
X146000000Y-54000000D01*
X146000000Y-54000000D02*
X147000000Y-53000000D01*
X147000000Y-45000000D02*
X145500000Y-43500000D01*
X145500000Y-43500000D02*
X142000000Y-40000000D01*
X147000000Y-53000000D02*
X147000000Y-45000000D01*
X136450000Y-40000000D02*
X142000000Y-40000000D01*
X151000000Y-57000000D02*
X137500000Y-57000000D01*
X133000000Y-57000000D02*
X133000000Y-59000000D01*
X134000000Y-56000000D02*
X133000000Y-57000000D01*
X136500000Y-56000000D02*
X134000000Y-56000000D01*
X137500000Y-57000000D02*
X136500000Y-56000000D01*
D20*
X133500000Y-63500000D02*
X133500000Y-61500000D01*
X133000000Y-61000000D02*
X133000000Y-59000000D01*
X133500000Y-61500000D02*
X133000000Y-61000000D01*
D22*
X148880000Y-54380000D02*
X147000000Y-54380000D01*
X151000000Y-57000000D02*
X151000000Y-56500000D01*
X151000000Y-56500000D02*
X148880000Y-54380000D01*
X147000000Y-54380000D02*
X146000000Y-54380000D01*
D21*
X135000000Y-35000000D02*
X135000000Y-43501780D01*
X132460000Y-35000000D02*
X132460000Y-39460000D01*
X133000000Y-40000000D02*
X133550000Y-40000000D01*
X132460000Y-39460000D02*
X133000000Y-40000000D01*
X135763000Y-76344000D02*
X135763000Y-74237000D01*
X146000000Y-64000000D02*
X146000000Y-62000000D01*
X135763000Y-74237000D02*
X146000000Y-64000000D01*
X135763000Y-78884000D02*
X134384000Y-78884000D01*
X143460000Y-64040000D02*
X143460000Y-62000000D01*
X133500000Y-74000000D02*
X143460000Y-64040000D01*
X133500000Y-78000000D02*
X133500000Y-74000000D01*
X134384000Y-78884000D02*
X133500000Y-78000000D01*
X135763000Y-81424000D02*
X134424000Y-81424000D01*
X140920000Y-64080000D02*
X140920000Y-62000000D01*
X132000000Y-73000000D02*
X140920000Y-64080000D01*
X132000000Y-79000000D02*
X132000000Y-73000000D01*
X134424000Y-81424000D02*
X132000000Y-79000000D01*
X133550000Y-51000000D02*
X133550000Y-46000760D01*
X133550000Y-46000760D02*
X134050000Y-45500760D01*
X136450000Y-51000000D02*
X137000000Y-51000000D01*
X138380000Y-52380000D02*
X138380000Y-54380000D01*
X137000000Y-51000000D02*
X138380000Y-52380000D01*
X138000000Y-47500000D02*
X138000000Y-45550000D01*
X138000000Y-45550000D02*
X139550000Y-44000000D01*
X140550000Y-51000000D02*
X139500000Y-51000000D01*
X138000000Y-49500000D02*
X138000000Y-47500000D01*
X139500000Y-51000000D02*
X138000000Y-49500000D01*
X143450000Y-51000000D02*
X143450000Y-48050000D01*
X143450000Y-48050000D02*
X144000000Y-47500000D01*
X143460000Y-54380000D02*
X143460000Y-51010000D01*
X143460000Y-51010000D02*
X143450000Y-51000000D01*
M02*
