M48
;DRILL file {KiCad 4.0.1-stable} date 11/29/2016 5:41:58 PM
;FORMAT={-:-/ absolute / inch / decimal}
FMAT,2
INCH,TZ
T1C0.035
T2C0.039
T3C0.040
T4C0.120
%
G90
G05
M72
T1
X5.67Y-3.575
X5.67Y-3.675
X5.77Y-3.575
X5.77Y-3.675
X5.87Y-3.575
X5.87Y-3.675
X5.97Y-3.575
X5.97Y-3.675
T2
X6.27Y-4.275
X6.37Y-4.275
T3
X4.97Y-3.775
X4.97Y-3.875
X4.97Y-3.975
X4.97Y-4.075
X4.97Y-4.175
X4.97Y-4.275
X5.11Y-2.975
X5.12Y-3.805
X5.21Y-2.975
X5.22Y-3.805
X5.31Y-2.975
X5.32Y-3.805
X5.41Y-2.975
X5.47Y-4.875
X5.51Y-2.975
X5.57Y-4.875
X5.61Y-2.975
X5.67Y-4.875
X5.71Y-2.975
X5.77Y-4.875
X5.81Y-2.975
X5.87Y-4.875
X5.91Y-2.975
X5.97Y-4.875
X6.01Y-2.975
X6.07Y-4.875
X6.17Y-2.975
X6.17Y-4.875
X6.27Y-2.975
X6.37Y-2.975
X6.37Y-4.875
X6.47Y-2.975
X6.47Y-4.875
X6.57Y-2.975
X6.57Y-4.875
X6.67Y-2.975
X6.67Y-4.875
X6.77Y-2.975
X6.77Y-4.875
X6.87Y-2.975
X6.87Y-4.875
T4
X4.92Y-4.875
X4.97Y-2.975
X6.97Y-3.575
X6.97Y-4.675
T0
M30
